<svg width="355" height="66" viewBox="0 0 355 66" fill="none" xmlns="http://www.w3.org/2000/svg">
<path fill-rule="evenodd" clip-rule="evenodd" d="M61.2438 10.1441C61.2384 8.305 60.5169 6.54282 59.2372 5.24253C57.9574 3.94223 56.2233 3.20952 54.4136 3.20447C39.4149 4.96376 24.2669 4.96376 9.26824 3.20447C7.45933 3.21 5.72613 3.94307 4.44745 5.24344C3.16877 6.54382 2.44859 8.30574 2.44434 10.1441C3.92893 25.4 3.92893 40.7676 2.44434 56.0235C2.44859 57.8619 3.16877 59.6238 4.44745 60.9242C5.72613 62.2245 7.45933 62.9576 9.26824 62.9631C24.2669 61.2042 39.4149 61.2042 54.4136 62.9631C56.2232 62.9579 57.9572 62.2251 59.2369 60.9248C60.5166 59.6246 61.2381 57.8625 61.2438 56.0235C59.3822 41.0022 59.836 25.6657 61.2438 10.1441ZM29.9292 49.5613H13.8343C13.5473 51.0668 13.2263 52.5702 12.8712 54.0714C12.8222 54.289 12.6963 54.4807 12.5175 54.6102C12.3387 54.7397 12.1193 54.798 11.901 54.7741H8.41369C8.27703 54.7734 8.14281 54.737 8.02401 54.6683C7.90522 54.5997 7.80584 54.5011 7.73546 54.382C7.66508 54.2629 7.62607 54.1275 7.6222 53.9886C7.61833 53.8498 7.64973 53.7122 7.71336 53.5893C8.76284 50.2507 9.51931 46.8241 9.97395 43.3498H29.9292V49.5613ZM29.9292 40.1347H10.3811C10.5801 38.2665 10.7397 36.3427 10.8294 34.4089H29.9292V40.1347ZM29.9292 31.1974H10.9316C10.9675 29.2627 10.9316 27.3407 10.8375 25.478H29.9292V31.1974ZM29.9292 22.2601H10.6034C10.3476 18.8587 9.62317 15.5107 8.45135 12.314C8.22897 11.7672 8.49708 11.3571 9.09428 11.3927H12.9411C13.1153 11.3978 13.2839 11.4565 13.4245 11.5611C13.5651 11.6658 13.6711 11.8114 13.7284 11.9786C14.0369 13.3848 14.3014 14.7946 14.5355 16.2081H29.9292V22.2601ZM33.7563 16.2081H49.1455C49.3804 14.7949 49.6494 13.3851 49.9525 11.9786C50.0107 11.8112 50.1175 11.6657 50.2586 11.5611C50.3998 11.4565 50.5688 11.3978 50.7434 11.3927H54.5876C55.1866 11.3571 55.4547 11.7672 55.2359 12.314C54.0623 15.5101 53.3378 18.8584 53.0838 22.2601H33.7563V16.2081ZM33.7563 25.478H52.8462C52.7502 27.3407 52.7215 29.2627 52.752 31.1974H33.7563V25.478ZM33.7563 34.4089H52.8605C52.9502 36.3427 53.1071 38.2665 53.3089 40.1347H33.7608L33.7563 34.4089ZM55.2772 54.7741H51.7881C51.5694 54.7995 51.3492 54.7417 51.1699 54.612C50.9906 54.4823 50.8649 54.2897 50.8169 54.0714C50.4582 52.5678 50.1361 51.0644 49.8503 49.5613H33.7563V43.3452H53.7088C54.1634 46.8199 54.9215 50.2466 55.9739 53.5848C56.0369 53.7075 56.0679 53.8447 56.0639 53.9831C56.0599 54.1215 56.021 54.2566 55.9511 54.3754C55.8811 54.4942 55.7823 54.5928 55.6642 54.6618C55.5461 54.7308 55.4125 54.7679 55.2763 54.7695" fill="#4B79BB"/>
<path d="M85.1119 21.3358H79.1855V44.8323H85.1119V21.3358Z" fill="#5A5D62"/>
<path d="M115.324 44.8323H121.253V35.5824H132.177V31.0751H121.253V25.8159H132.177V21.3358H115.324V44.8323Z" fill="#5A5D62"/>
<path d="M147.658 20.9041C140.319 20.9041 135.574 25.6502 135.574 32.9881C135.574 40.4509 140.319 45.2636 147.658 45.2636C154.998 45.2636 159.745 40.4509 159.745 32.9881C159.745 25.6502 155.001 20.9041 147.658 20.9041ZM147.658 40.6295C143.929 40.6295 141.612 37.7042 141.612 32.9881C141.612 28.3058 143.872 25.5071 147.658 25.5071C151.444 25.5071 153.71 28.3058 153.71 32.9881C153.71 37.7042 151.391 40.6295 147.658 40.6295Z" fill="#5A5D62"/>
<path d="M182.84 28.5817C182.84 25.2746 181.068 21.3331 172.635 21.3331H163.146V44.8305H169.073V36.2003H172.201L177.593 44.8305H184.271L178.021 35.3255C181.178 34.1171 182.84 31.7951 182.84 28.5817ZM172.139 31.9071H169.072V25.6309H172.139C175.604 25.6309 177.017 26.4866 177.017 28.5836C177.017 30.788 175.376 31.9071 172.139 31.9071Z" fill="#5A5D62"/>
<path d="M186.445 44.8323H203.231V40.324H192.372V34.9062H203.231V30.3979H192.372V25.8159H203.231V21.3358H186.445V44.8323Z" fill="#5A5D62"/>
<path d="M104.694 21.3358V35.9296L95.7902 21.3358H95.7463H89.8604V44.8323H95.5087H95.7902V30.0945L97.0878 32.463L104.694 44.8323H104.777H110.623V21.3358H104.98H104.694Z" fill="#5A5D62"/>
<path d="M221.816 44.8323H238.607V40.324H227.749V34.9062H238.607V30.3979H227.749V25.8159H238.607V21.3358H221.816V44.8323Z" fill="#5A5D62"/>
<path d="M279.515 32.6681C279.094 33.9749 278.72 35.2399 278.365 36.4656C278.096 37.3869 277.813 38.3301 277.51 39.3043C277.165 38.2153 276.871 37.1627 276.578 36.1366C276.264 35.0211 275.939 33.8637 275.55 32.6681L271.996 21.335H265.769L274.033 44.8324H280.752L289.05 21.335H282.997L279.515 32.6681Z" fill="#5A5D62"/>
<path d="M297.691 21.3358H291.765V44.8323H297.691V21.3358Z" fill="#5A5D62"/>
<path d="M320.789 28.5817C320.789 25.2746 319.016 21.3331 310.582 21.3331H301.084V44.8305H307.01V36.2003H310.143L315.539 44.8305H322.21L315.969 35.3255C319.124 34.1171 320.792 31.7951 320.792 28.5817M310.085 31.9053H307.017V25.6291H310.085C313.554 25.6291 314.965 26.4848 314.965 28.5817C314.965 30.7862 313.325 31.9053 310.085 31.9053Z" fill="#5A5D62"/>
<path d="M336.517 20.9039C329.177 20.9039 324.436 25.6501 324.436 32.988C324.436 40.4508 329.177 45.2634 336.517 45.2634C343.856 45.2634 348.596 40.4508 348.596 32.988C348.596 25.6501 343.859 20.9039 336.517 20.9039ZM336.517 40.6294C332.787 40.6294 330.469 37.7041 330.469 32.988C330.469 28.3057 332.732 25.507 336.517 25.507C340.302 25.507 342.566 28.3057 342.566 32.988C342.566 37.7041 340.247 40.6294 336.517 40.6294Z" fill="#5A5D62"/>
<path d="M257.125 21.3358V35.9296L255.9 33.6386L249.792 23.9085L248.221 21.3358H248.174H242.293V44.8323H247.938H248.221V30.0945L249.512 32.463L257.125 44.8323H257.202H263.055V21.3358H257.41H257.125Z" fill="#5A5D62"/>
</svg>
