<svg width="605" height="478" viewBox="0 0 605 478" fill="none" xmlns="http://www.w3.org/2000/svg">
<g opacity="0.2">
<path d="M337.947 56.7921L300.876 0.00126841H248.81C237.192 -0.0690972 225.747 2.78929 215.55 8.30796C205.352 13.8266 196.737 21.8245 190.513 31.5504L155.977 85.1876L278.538 159.727L337.947 56.7921Z" fill="#3B8036"/>
<path d="M533.098 102.367L490.215 31.9538C479.309 12.2371 457.844 -0.0577245 434.513 0.00155618H300.938L401.089 181.021L345.387 212.961L511.19 230.995L590.486 74.4936L533.098 102.367Z" fill="#3DA837"/>
<path d="M601.627 223.608L467.933 298.147L523.635 393.98H612.772L636.055 358.044C642.395 348.3 645.897 337.01 646.176 325.417C646.454 313.825 643.498 302.382 637.634 292.35L601.627 223.608Z" fill="#3B8036"/>
<path d="M389.942 393.98V340.734L278.538 457.861L389.942 596.293V553.694H479.08C502.542 554.24 524.246 541.838 534.782 521.754L612.774 393.98H389.942Z" fill="#3DA837"/>
<path d="M111.421 404.627L84.2874 464.382L118.189 520.509C124.56 530.623 133.412 538.972 143.918 544.777C154.423 550.582 166.241 553.654 178.268 553.706H222.825V404.627H111.421Z" fill="#3B8036"/>
<path d="M245.147 308.794L178.299 170.374L0 181.021L63.7142 218.783L22.2784 298.147C16.62 307.86 13.6409 318.878 13.6409 330.094C13.6409 341.31 16.62 352.328 22.2784 362.04L84.2706 464.382L107.47 425.921L190.27 288.568L245.147 308.794Z" fill="#3DA837"/>
</g>
</svg>
