<svg width="20" height="20" viewBox="0 0 20 20" fill="none" xmlns="http://www.w3.org/2000/svg">
<path d="M15.8333 16.8335H4.16667V7.66683H15.8333M13.3333 1.8335V3.50016H6.66667V1.8335H5V3.50016H4.16667C3.24167 3.50016 2.5 4.24183 2.5 5.16683V16.8335C2.5 17.2755 2.67559 17.6994 2.98816 18.012C3.30072 18.3246 3.72464 18.5002 4.16667 18.5002H15.8333C16.2754 18.5002 16.6993 18.3246 17.0118 18.012C17.3244 17.6994 17.5 17.2755 17.5 16.8335V5.16683C17.5 4.7248 17.3244 4.30088 17.0118 3.98832C16.6993 3.67576 16.2754 3.50016 15.8333 3.50016H15V1.8335M14.1667 11.0002H10V15.1668H14.1667V11.0002Z" fill="#93B947"/>
</svg>
