<svg width="19" height="19" viewBox="0 0 19 19" fill="none" xmlns="http://www.w3.org/2000/svg">
<path d="M17.7499 6.24959H16.4482L13.0455 0.294922L11.4542 1.20426L14.3371 6.24959H4.66261L7.54645 1.20426L5.9542 0.294922L2.55153 6.24959H1.24986C1.10891 6.24956 0.969841 6.28204 0.843479 6.3445C0.717117 6.40696 0.606862 6.49772 0.521284 6.60972C0.435706 6.72173 0.377111 6.85196 0.350054 6.9903C0.322997 7.12863 0.328207 7.27134 0.365278 7.40734L2.93103 16.816C3.03769 17.2036 3.26846 17.5455 3.588 17.7894C3.90754 18.0332 4.29822 18.1656 4.70019 18.1663H14.3004C15.1236 18.1663 15.8514 17.6117 16.0696 16.8142L18.6354 7.40642C18.6727 7.27039 18.678 7.12757 18.651 6.98913C18.624 6.85069 18.5653 6.72037 18.4796 6.60836C18.3938 6.49635 18.2833 6.40568 18.1568 6.34345C18.0302 6.28121 17.8909 6.24909 17.7499 6.24959ZM14.2995 16.3329H4.70019L2.45069 8.08292H16.549L14.2995 16.3329Z" fill="white"/>
</svg>
