<svg width="22" height="22" viewBox="0 0 22 22" fill="none" xmlns="http://www.w3.org/2000/svg">
<g clip-path="url(#clip0_2158_12)">
<path d="M11 1.8335C16.0628 1.8335 20.1667 5.93741 20.1667 11.0002C20.1667 16.0629 16.0628 20.1668 11 20.1668C5.93729 20.1668 1.83337 16.0629 1.83337 11.0002C1.83337 5.93741 5.93729 1.8335 11 1.8335ZM11 5.50016C10.7569 5.50016 10.5238 5.59674 10.3519 5.76865C10.18 5.94056 10.0834 6.17371 10.0834 6.41683V11.0002C10.0834 11.2433 10.18 11.4764 10.352 11.6482L13.102 14.3982C13.2748 14.5652 13.5064 14.6576 13.7467 14.6555C13.9871 14.6534 14.217 14.557 14.387 14.3871C14.5569 14.2171 14.6533 13.9872 14.6554 13.7469C14.6575 13.5065 14.5651 13.275 14.3981 13.1021L11.9167 10.6207V6.41683C11.9167 6.17371 11.8201 5.94056 11.6482 5.76865C11.4763 5.59674 11.2432 5.50016 11 5.50016Z" fill="#93B947"/>
</g>
<defs>
<clipPath id="clip0_2158_12">
<rect width="22" height="22" fill="white"/>
</clipPath>
</defs>
</svg>
