<svg width="17" height="17" viewBox="0 0 17 17" fill="none" xmlns="http://www.w3.org/2000/svg">
<path d="M14.3183 4.86328H7.77282M9.95463 12.136H3.40918" stroke="white" stroke-width="2" stroke-linecap="square"/>
<path d="M12.1364 14.3177C13.3414 14.3177 14.3182 13.3409 14.3182 12.1359C14.3182 10.9309 13.3414 9.9541 12.1364 9.9541C10.9314 9.9541 9.95459 10.9309 9.95459 12.1359C9.95459 13.3409 10.9314 14.3177 12.1364 14.3177Z" stroke="white" stroke-width="2" stroke-linecap="round"/>
<path d="M4.8637 7.04528C6.06869 7.04528 7.04552 6.06844 7.04552 4.86346C7.04552 3.65847 6.06869 2.68164 4.8637 2.68164C3.65872 2.68164 2.68188 3.65847 2.68188 4.86346C2.68188 6.06844 3.65872 7.04528 4.8637 7.04528Z" stroke="white" stroke-width="2" stroke-linecap="round"/>
</svg>
