<svg width="22" height="22" viewBox="0 0 22 22" fill="none" xmlns="http://www.w3.org/2000/svg">
<path d="M18.3334 3.6665H3.66671C2.65837 3.6665 1.83337 4.4915 1.83337 5.49984V16.4998C1.83337 17.5082 2.65837 18.3332 3.66671 18.3332H18.3334C19.3417 18.3332 20.1667 17.5082 20.1667 16.4998V5.49984C20.1667 4.4915 19.3417 3.6665 18.3334 3.6665ZM17.9667 7.56234L11.9717 11.3115C11.3759 11.6873 10.6242 11.6873 10.0284 11.3115L4.03337 7.56234C3.94146 7.51074 3.86097 7.44103 3.79677 7.35742C3.73258 7.27381 3.68601 7.17805 3.6599 7.07593C3.63379 6.9738 3.62867 6.86744 3.64485 6.76329C3.66103 6.65913 3.69818 6.55933 3.75405 6.46995C3.80992 6.38056 3.88334 6.30344 3.96987 6.24325C4.05641 6.18306 4.15426 6.14106 4.25749 6.11978C4.36073 6.0985 4.46722 6.09839 4.5705 6.11946C4.67378 6.14052 4.77172 6.18233 4.85837 6.24234L11 10.0832L17.1417 6.24234C17.2284 6.18233 17.3263 6.14052 17.4296 6.11946C17.5329 6.09839 17.6393 6.0985 17.7426 6.11978C17.8458 6.14106 17.9437 6.18306 18.0302 6.24325C18.1167 6.30344 18.1902 6.38056 18.246 6.46995C18.3019 6.55933 18.339 6.65913 18.3552 6.76329C18.3714 6.86744 18.3663 6.9738 18.3402 7.07593C18.3141 7.17805 18.2675 7.27381 18.2033 7.35742C18.1391 7.44103 18.0586 7.51074 17.9667 7.56234Z" fill="#93B947"/>
</svg>
