<svg width="22" height="22" viewBox="0 0 22 22" fill="none" xmlns="http://www.w3.org/2000/svg">
<path d="M17.6275 13.9884L15.2992 13.7226C15.0254 13.6905 14.7479 13.7208 14.4875 13.8113C14.2272 13.9018 13.9907 14.0501 13.7959 14.2451L12.1092 15.9318C9.50696 14.6083 7.39184 12.4932 6.06837 9.89095L7.7642 8.19511C8.15837 7.80094 8.35087 7.25095 8.2867 6.69178L8.02087 4.38178C7.9689 3.93461 7.7543 3.52216 7.41792 3.22297C7.08154 2.92378 6.64689 2.75874 6.1967 2.75928H4.61087C3.57504 2.75928 2.71337 3.62095 2.77754 4.65678C3.26337 12.4851 9.5242 18.7368 17.3434 19.2226C18.3792 19.2868 19.2409 18.4251 19.2409 17.3893V15.8034C19.25 14.8776 18.5534 14.0984 17.6275 13.9884Z" fill="#93B947"/>
</svg>
