<svg width="24" height="24" viewBox="0 0 24 24" fill="none" xmlns="http://www.w3.org/2000/svg">
<path d="M12 20C14.1217 20 16.1566 19.1571 17.6569 17.6569C19.1571 16.1566 20 14.1217 20 12C20 9.87827 19.1571 7.84344 17.6569 6.34315C16.1566 4.84285 14.1217 4 12 4C9.87827 4 7.84344 4.84285 6.34315 6.34315C4.84285 7.84344 4 9.87827 4 12C4 14.1217 4.84285 16.1566 6.34315 17.6569C7.84344 19.1571 9.87827 20 12 20Z" stroke="#93B947" stroke-width="2" stroke-linecap="round" stroke-linejoin="round"/>
<path d="M5 10H19" stroke="#93B947" stroke-width="2"/>
<path d="M5 14H19" stroke="#93B947" stroke-width="2"/>
<path d="M15 12C15 15.3473 13.802 17.7272 12 20C10.198 17.7272 9 15.3473 9 12C9 8.65269 10.198 6.2728 12 4C13.802 6.2728 15 8.65269 15 12Z" stroke="#93B947" stroke-width="2" stroke-linecap="round" stroke-linejoin="round"/>
</svg>
