<svg width="60" height="60" viewBox="0 0 60 60" fill="none" xmlns="http://www.w3.org/2000/svg">
<path d="M25.1248 26.5175L7.44983 44.1925C6.98495 44.6569 6.61615 45.2083 6.36453 45.8153C6.11291 46.4223 5.9834 47.0729 5.9834 47.73C5.9834 48.3871 6.11291 49.0377 6.36453 49.6447C6.61615 50.2517 6.98495 50.8032 7.44983 51.2675C8.38747 52.2049 9.65901 52.7315 10.9848 52.7315C12.3107 52.7315 13.5822 52.2049 14.5198 51.2675L32.1948 33.5875M42.9823 34.5L52.6773 44.195C53.6147 45.1327 54.1413 46.4042 54.1413 47.73C54.1413 49.0558 53.6147 50.3274 52.6773 51.265C51.7397 52.2024 50.4682 52.729 49.1423 52.729C47.8165 52.729 46.545 52.2024 45.6073 51.265L30.0848 35.745M16.8323 14.76L11.5248 16.525L6.22483 7.68753L9.75983 4.15253L18.5998 9.45503L16.8323 14.76ZM16.8323 14.76L23.9073 21.835" stroke="#93B947" stroke-width="3" stroke-linecap="round" stroke-linejoin="round"/>
<path d="M25.1247 26.5175C23.0147 21.135 23.4272 14.0725 27.7772 9.72252C32.1272 5.37252 40.1522 4.42002 44.5697 7.07252L36.9697 14.6725L36.2622 22.45L44.0397 21.745L51.6397 14.1425C54.2947 18.5625 53.3397 26.5875 48.9897 30.935C44.6397 35.285 37.5797 35.6975 32.1972 33.5875" stroke="#93B947" stroke-width="3" stroke-linecap="round" stroke-linejoin="round"/>
</svg>
