<svg width="60" height="60" viewBox="0 0 60 60" fill="none" xmlns="http://www.w3.org/2000/svg">
<path d="M24.701 22.5L35.225 7.5L47.501 16.1004L43.025 22.5H24.701ZM24.701 22.5H13.9502L22.7258 9.9996L30.0002 15L24.701 22.5Z" stroke="#93B947" stroke-width="3" stroke-linecap="round" stroke-linejoin="round"/>
<path d="M50.0004 22.5H9.9996C8.6196 22.5 7.5 23.6196 7.5 24.9996V50.0004C7.5 51.3804 8.6196 52.5 9.9996 52.5H50.0004C51.3804 52.5 52.5 51.3804 52.5 50.0004V24.9996C52.5 23.6196 51.3804 22.5 50.0004 22.5Z" stroke="#93B947" stroke-width="3" stroke-linecap="round" stroke-linejoin="round"/>
<path d="M39.9996 32.4996H52.5V42.5004H39.9996C39.6712 42.5004 39.3461 42.4357 39.0428 42.31C38.7394 42.1843 38.4638 42.0001 38.2317 41.7678C37.9996 41.5356 37.8155 41.2599 37.6899 40.9565C37.5644 40.6531 37.4998 40.3279 37.5 39.9996V35.0004C37.5 34.3373 37.7633 33.7014 38.232 33.2325C38.7008 32.7635 39.3366 32.4999 39.9996 32.4996Z" stroke="#93B947" stroke-width="3" stroke-linecap="round" stroke-linejoin="round"/>
</svg>
