<svg width="32" height="32" viewBox="0 0 32 32" fill="none" xmlns="http://www.w3.org/2000/svg">
<g clip-path="url(#clip0_2158_57)">
<path d="M16 3C12.553 3 9.24406 4.37048 6.80859 6.80758C4.37063 9.24565 3.0007 12.5521 3 16C3 19.4464 4.37109 22.7553 6.80859 25.1924C9.24406 27.6295 12.553 29 16 29C19.447 29 22.7559 27.6295 25.1914 25.1924C27.6289 22.7553 29 19.4464 29 16C29 12.5536 27.6289 9.24467 25.1914 6.80758C22.7559 4.37048 19.447 3 16 3Z" fill="#93B947"/>
<path d="M8.88442 15.8625C12.6747 14.2115 15.2016 13.1231 16.465 12.5971C20.0766 11.0954 20.8261 10.8346 21.3157 10.8258C21.4233 10.824 21.663 10.8506 21.8194 10.9771C21.9494 11.0837 21.986 11.2279 22.0043 11.3292C22.0205 11.4304 22.0429 11.6609 22.0246 11.8409C21.8296 13.8965 20.9825 18.8848 20.5519 21.1873C20.3711 22.1615 20.0116 22.4881 19.6643 22.52C18.9086 22.5894 18.3358 22.0211 17.6046 21.5419C16.461 20.7918 15.815 20.325 14.7039 19.5931C13.4202 18.7473 14.253 18.2824 14.9843 17.5227C15.1752 17.3238 18.5024 14.2983 18.5654 14.0239C18.5735 13.9895 18.5816 13.8616 18.5044 13.7941C18.4293 13.7265 18.3175 13.7496 18.2363 13.7679C18.1205 13.7939 16.2944 15.0021 12.7519 17.3923C12.2339 17.7486 11.7647 17.9222 11.3422 17.9131C10.8791 17.9031 9.98535 17.6507 9.32113 17.4349C8.50863 17.1703 7.86067 17.0303 7.91754 16.5808C7.94598 16.3468 8.26895 16.1073 8.88442 15.8625Z" fill="white"/>
</g>
<defs>
<clipPath id="clip0_2158_57">
<rect width="26" height="26" fill="white" transform="translate(3 3)"/>
</clipPath>
</defs>
</svg>
