<svg width="32" height="32" viewBox="0 0 32 32" fill="none" xmlns="http://www.w3.org/2000/svg">
<path d="M30.5002 8.6609C30.3262 8.01777 29.9867 7.43144 29.5156 6.96031C29.0445 6.48918 28.4582 6.14969 27.8151 5.97563C25.4606 5.3335 15.9846 5.3335 15.9846 5.3335C15.9846 5.3335 6.50807 5.35293 4.15358 5.99507C3.51044 6.16913 2.92412 6.50865 2.45301 6.9798C1.9819 7.45095 1.64244 8.0373 1.46843 8.68046C0.75625 12.8639 0.479983 19.2386 1.48798 23.2547C1.66201 23.8978 2.00148 24.4841 2.47259 24.9553C2.9437 25.4264 3.53001 25.7659 4.17314 25.94C6.52763 26.5821 16.0039 26.5821 16.0039 26.5821C16.0039 26.5821 25.48 26.5821 27.8344 25.94C28.4776 25.7659 29.0639 25.4264 29.535 24.9553C30.0062 24.4842 30.3456 23.8978 30.5197 23.2547C31.2709 19.0653 31.5023 12.6946 30.5002 8.6609Z" fill="#93B947"/>
<path d="M12.9685 20.5108L20.8296 15.9575L12.9685 11.4043V20.5108Z" fill="white"/>
</svg>
