<svg width="259" height="48" viewBox="0 0 259 48" fill="none" xmlns="http://www.w3.org/2000/svg">
<path fill-rule="evenodd" clip-rule="evenodd" d="M44.6781 7.14576C44.6741 5.80036 44.1469 4.51124 43.2117 3.56002C42.2765 2.6088 41.0092 2.07278 39.6868 2.06909C28.7262 3.35609 17.6565 3.35609 6.69593 2.06909C5.37403 2.07314 4.10747 2.60941 3.17305 3.56069C2.23862 4.51197 1.71234 5.80089 1.70923 7.14576C2.79412 18.3061 2.79412 29.5481 1.70923 40.7085C1.71234 42.0534 2.23862 43.3423 3.17305 44.2936C4.10747 45.2448 5.37403 45.7811 6.69593 45.7852C17.6565 44.4984 28.7262 44.4984 39.6868 45.7852C41.0092 45.7813 42.2763 45.2452 43.2115 44.294C44.1467 43.3429 44.6739 42.0538 44.6781 40.7085C43.3177 29.7198 43.6493 18.5004 44.6781 7.14576ZM21.7943 35.9811H10.0326C9.82294 37.0825 9.58835 38.1823 9.32886 39.2805C9.29303 39.4396 9.20106 39.5799 9.07038 39.6746C8.93969 39.7693 8.77938 39.812 8.61984 39.7945H6.07145C5.97158 39.794 5.8735 39.7674 5.78669 39.7172C5.69987 39.6669 5.62725 39.5948 5.57582 39.5077C5.52439 39.4206 5.49588 39.3215 5.49305 39.2199C5.49022 39.1183 5.51317 39.0177 5.55967 38.9278C6.32659 36.4854 6.87941 33.9787 7.21164 31.4371H21.7943V35.9811ZM21.7943 29.0851H7.50914C7.65461 27.7185 7.77125 26.3111 7.83678 24.8965H21.7943V29.0851ZM21.7943 22.5471H7.91148C7.9377 21.1318 7.91148 19.7258 7.84267 18.3631H21.7943V22.5471ZM21.7943 16.0091H7.67164C7.48469 13.5209 6.9553 11.0716 6.09897 8.7331C5.93646 8.3331 6.13238 8.03311 6.5688 8.05911H9.37997C9.50727 8.06284 9.63044 8.10581 9.73319 8.18236C9.83593 8.25891 9.91339 8.36542 9.9553 8.48776C10.1807 9.51643 10.374 10.5478 10.5451 11.5818H21.7943V16.0091ZM24.591 11.5818H35.837C36.0087 10.548 36.2053 9.51665 36.4267 8.48776C36.4693 8.36531 36.5473 8.25883 36.6504 8.18232C36.7536 8.10581 36.8771 8.06286 37.0047 8.05911H39.8139C40.2516 8.03311 40.4476 8.3331 40.2877 8.7331C39.43 11.0712 38.9006 13.5207 38.715 16.0091H24.591V11.5818ZM24.591 18.3631H38.5413C38.4712 19.7258 38.4503 21.1318 38.4725 22.5471H24.591V18.3631ZM24.591 24.8965H38.5518C38.6174 26.3111 38.732 27.7185 38.8795 29.0851H24.5943L24.591 24.8965ZM40.3178 39.7945H37.7681C37.6083 39.8131 37.4474 39.7708 37.3164 39.6759C37.1854 39.581 37.0935 39.4402 37.0584 39.2805C36.7963 38.1805 36.5609 37.0807 36.3521 35.9811H24.591V31.4338H39.1717C39.504 33.9757 40.0579 36.4825 40.827 38.9245C40.873 39.0143 40.8957 39.1146 40.8927 39.2159C40.8898 39.3172 40.8614 39.4159 40.8103 39.5029C40.7592 39.5898 40.687 39.6619 40.6007 39.7124C40.5143 39.7629 40.4167 39.79 40.3172 39.7912" fill="#4B79BB"/>
<path d="M62.1198 15.333H57.7891V32.5217H62.1198V15.333Z" fill="#5A5D62"/>
<path d="M84.198 32.5217H88.5307V25.755H96.5134V22.4577H88.5307V18.6104H96.5134V15.333H84.198V32.5217Z" fill="#5A5D62"/>
<path d="M107.827 15.0171C102.464 15.0171 98.9967 18.4891 98.9967 23.8571C98.9967 29.3165 102.464 32.8371 107.827 32.8371C113.191 32.8371 116.66 29.3165 116.66 23.8571C116.66 18.4891 113.193 15.0171 107.827 15.0171ZM107.827 29.4471C105.102 29.4471 103.409 27.3071 103.409 23.8571C103.409 20.4318 105.061 18.3844 107.827 18.3844C110.594 18.3844 112.25 20.4318 112.25 23.8571C112.25 27.3071 110.555 29.4471 107.827 29.4471Z" fill="#5A5D62"/>
<path d="M133.536 20.6337C133.536 18.2144 132.241 15.3311 126.079 15.3311H119.145V32.5204H123.476V26.2071H125.762L129.702 32.5204H134.582L130.015 25.5671C132.322 24.6831 133.536 22.9844 133.536 20.6337ZM125.716 23.0664H123.475V18.4751H125.716C128.249 18.4751 129.281 19.1011 129.281 20.6351C129.281 22.2477 128.082 23.0664 125.716 23.0664Z" fill="#5A5D62"/>
<path d="M136.171 32.5217H148.438V29.2237H140.502V25.2604H148.438V21.9624H140.502V18.6104H148.438V15.333H136.171V32.5217Z" fill="#5A5D62"/>
<path d="M76.4304 15.333V26.009L69.9235 15.333H69.8914H65.5901V32.5217H69.7177H69.9235V21.7403L70.8717 23.473L76.4304 32.5217H76.4907H80.7632V15.333H76.6388H76.4304Z" fill="#5A5D62"/>
<path d="M162.02 32.5217H174.29V29.2237H166.355V25.2604H174.29V21.9624H166.355V18.6104H174.29V15.333H162.02V32.5217Z" fill="#5A5D62"/>
<path d="M204.184 23.6232C203.876 24.5792 203.602 25.5046 203.343 26.4012C203.146 27.0752 202.94 27.7652 202.718 28.4779C202.466 27.6812 202.251 26.9112 202.037 26.1605C201.807 25.3445 201.57 24.4979 201.286 23.6232L198.689 15.3325H194.138L200.177 32.5219H205.087L211.151 15.3325H206.728L204.184 23.6232Z" fill="#5A5D62"/>
<path d="M217.466 15.333H213.135V32.5217H217.466V15.333Z" fill="#5A5D62"/>
<path d="M234.346 20.6337C234.346 18.2144 233.05 15.3311 226.887 15.3311H219.946V32.5204H224.277V26.2071H226.566L230.509 32.5204H235.384L230.823 25.5671C233.129 24.6831 234.348 22.9844 234.348 20.6337M226.524 23.0651H224.281V18.4737H226.524C229.059 18.4737 230.09 19.0997 230.09 20.6337C230.09 22.2464 228.891 23.0651 226.524 23.0651Z" fill="#5A5D62"/>
<path d="M245.839 15.0171C240.476 15.0171 237.011 18.4891 237.011 23.8571C237.011 29.3165 240.476 32.8371 245.839 32.8371C251.203 32.8371 254.667 29.3165 254.667 23.8571C254.667 18.4891 251.205 15.0171 245.839 15.0171ZM245.839 29.4471C243.113 29.4471 241.42 27.3071 241.42 23.8571C241.42 20.4318 243.073 18.3844 245.839 18.3844C248.605 18.3844 250.26 20.4318 250.26 23.8571C250.26 27.3071 248.565 29.4471 245.839 29.4471Z" fill="#5A5D62"/>
<path d="M187.822 15.333V26.009L186.927 24.333L182.464 17.215L181.315 15.333H181.281H176.983V32.5217H181.108H181.315V21.7403L182.259 23.473L187.822 32.5217H187.879H192.156V15.333H188.031H187.822Z" fill="#5A5D62"/>
</svg>
