<svg width="416" height="149" viewBox="0 0 416 149" fill="none" xmlns="http://www.w3.org/2000/svg">
<rect width="416" height="149" fill="white"/>
<path fill-rule="evenodd" clip-rule="evenodd" d="M91.2436 52.144C91.2381 50.3049 90.5167 48.5427 89.2369 47.2424C87.9571 45.9421 86.223 45.2094 84.4134 45.2043C69.4147 46.9636 54.2667 46.9636 39.268 45.2043C37.4591 45.2099 35.7259 45.9429 34.4472 47.2433C33.1685 48.5437 32.4483 50.3056 32.4441 52.144C33.9287 67.3999 33.9287 82.7675 32.4441 98.0233C32.4483 99.8617 33.1685 101.624 34.4472 102.924C35.7259 104.224 37.4591 104.957 39.268 104.963C54.2667 103.204 69.4147 103.204 84.4134 104.963C86.2229 104.958 87.9569 104.225 89.2367 102.925C90.5164 101.624 91.2379 99.8624 91.2436 98.0233C89.382 83.0021 89.8357 67.6656 91.2436 52.144ZM59.9289 91.5612H43.834C43.5471 93.0667 43.226 94.5701 42.871 96.0713C42.8219 96.2888 42.6961 96.4805 42.5172 96.61C42.3384 96.7395 42.119 96.7979 41.9007 96.7739H38.4135C38.2768 96.7733 38.1426 96.7369 38.0238 96.6682C37.905 96.5996 37.8056 96.5009 37.7352 96.3819C37.6648 96.2628 37.6258 96.1273 37.622 95.9885C37.6181 95.8496 37.6495 95.7121 37.7131 95.5892C38.7626 92.2505 39.5191 88.824 39.9737 85.3497H59.9289V91.5612ZM59.9289 82.1345H40.3808C40.5799 80.2663 40.7395 78.3425 40.8292 76.4087H59.9289V82.1345ZM59.9289 73.1973H40.9314C40.9673 71.2625 40.9314 69.3406 40.8372 67.4778H59.9289V73.1973ZM59.9289 64.26H40.6032C40.3474 60.8586 39.6229 57.5105 38.4511 54.3139C38.2287 53.7671 38.4968 53.357 39.094 53.3925H42.9409C43.1151 53.3976 43.2836 53.4564 43.4242 53.561C43.5648 53.6657 43.6708 53.8112 43.7282 53.9785C44.0367 55.3847 44.3012 56.7945 44.5352 58.2079H59.9289V64.26ZM63.756 58.2079H79.1452C79.3802 56.7948 79.6492 55.385 79.9523 53.9785C80.0105 53.8111 80.1172 53.6656 80.2584 53.561C80.3995 53.4564 80.5685 53.3977 80.7432 53.3925H84.5873C85.1863 53.357 85.4544 53.7671 85.2356 54.3139C84.062 57.51 83.3376 60.8583 83.0836 64.26H63.756V58.2079ZM63.756 67.4778H82.8459C82.75 69.3406 82.7213 71.2625 82.7518 73.1973H63.756V67.4778ZM63.756 76.4087H82.8603C82.95 78.3425 83.1069 80.2663 83.3086 82.1345H63.7605L63.756 76.4087ZM85.2769 96.7739H81.7878C81.5692 96.7993 81.349 96.7416 81.1697 96.6119C80.9904 96.4822 80.8646 96.2896 80.8167 96.0713C80.458 94.5676 80.1358 93.0643 79.8501 91.5612H63.756V85.3451H83.7086C84.1632 88.8198 84.9212 92.2465 85.9736 95.5846C86.0366 95.7074 86.0676 95.8446 86.0636 95.983C86.0596 96.1214 86.0208 96.2565 85.9508 96.3753C85.8809 96.4941 85.7821 96.5927 85.664 96.6617C85.5458 96.7307 85.4123 96.7678 85.276 96.7694" fill="#4B79BB"/>
<path d="M115.111 63.3357H109.185V86.8322H115.111V63.3357Z" fill="#5A5D62"/>
<path d="M145.323 86.8322H151.252V77.5823H162.176V73.0749H151.252V67.8157H162.176V63.3357H145.323V86.8322Z" fill="#5A5D62"/>
<path d="M177.658 62.9041C170.319 62.9041 165.574 67.6502 165.574 74.9881C165.574 82.4509 170.319 87.2636 177.658 87.2636C184.998 87.2636 189.745 82.4509 189.745 74.9881C189.745 67.6502 185.001 62.9041 177.658 62.9041ZM177.658 82.6295C173.929 82.6295 171.612 79.7042 171.612 74.9881C171.612 70.3058 173.872 67.5071 177.658 67.5071C181.444 67.5071 183.71 70.3058 183.71 74.9881C183.71 79.7042 181.391 82.6295 177.658 82.6295Z" fill="#5A5D62"/>
<path d="M212.839 70.5816C212.839 67.2745 211.067 63.333 202.635 63.333H193.146V86.8304H199.072V78.2002H202.201L207.593 86.8304H214.27L208.02 77.3254C211.178 76.117 212.839 73.7949 212.839 70.5816ZM202.138 73.907H199.071V67.6308H202.138C205.604 67.6308 207.016 68.4865 207.016 70.5834C207.016 72.7879 205.375 73.907 202.138 73.907Z" fill="#5A5D62"/>
<path d="M216.445 86.8322H233.23V82.3239H222.371V76.9061H233.23V72.3978H222.371V67.8157H233.23V63.3357H216.445V86.8322Z" fill="#5A5D62"/>
<path d="M134.694 63.3357V77.9295L125.79 63.3357H125.746H119.86V86.8322H125.508H125.79V72.0943L127.087 74.4629L134.694 86.8322H134.777H140.623V63.3357H134.979H134.694Z" fill="#5A5D62"/>
<path d="M251.816 86.8322H268.607V82.3239H257.749V76.9061H268.607V72.3978H257.749V67.8157H268.607V63.3357H251.816V86.8322Z" fill="#5A5D62"/>
<path d="M309.514 74.6681C309.094 75.9749 308.719 77.2399 308.364 78.4656C308.095 79.3869 307.812 80.3301 307.509 81.3043C307.164 80.2153 306.87 79.1627 306.578 78.1366C306.263 77.0211 305.938 75.8637 305.549 74.6681L301.995 63.335H295.768L304.032 86.8324H310.751L319.049 63.335H312.996L309.514 74.6681Z" fill="#5A5D62"/>
<path d="M327.69 63.3357H321.764V86.8322H327.69V63.3357Z" fill="#5A5D62"/>
<path d="M350.789 70.5816C350.789 67.2745 349.016 63.333 340.581 63.333H331.084V86.8304H337.01V78.2002H340.143L345.538 86.8304H352.21L345.969 77.3254C349.123 76.117 350.791 73.7949 350.791 70.5816M340.085 73.9052H337.016V67.6289H340.085C343.554 67.6289 344.965 68.4847 344.965 70.5816C344.965 72.7861 343.324 73.9052 340.085 73.9052Z" fill="#5A5D62"/>
<path d="M366.517 62.9038C359.177 62.9038 354.436 67.65 354.436 74.9879C354.436 82.4506 359.177 87.2633 366.517 87.2633C373.856 87.2633 378.596 82.4506 378.596 74.9879C378.596 67.65 373.859 62.9038 366.517 62.9038ZM366.517 82.6293C362.787 82.6293 360.469 79.7039 360.469 74.9879C360.469 70.3055 362.732 67.5069 366.517 67.5069C370.302 67.5069 372.566 70.3055 372.566 74.9879C372.566 79.7039 370.247 82.6293 366.517 82.6293Z" fill="#5A5D62"/>
<path d="M287.125 63.3357V77.9295L285.9 75.6385L279.792 65.9083L278.221 63.3357H278.175H272.293V86.8322H277.938H278.221V72.0943L279.512 74.4629L287.125 86.8322H287.203H293.055V63.3357H287.411H287.125Z" fill="#5A5D62"/>
</svg>
