<svg width="227" height="76" viewBox="0 0 227 76" fill="none" xmlns="http://www.w3.org/2000/svg">
<g clip-path="url(#clip0_2122_252)">
<path d="M227 0H0V76H227V0Z" fill="#A4CE4E"/>
<path d="M176.644 31.6102C176.408 30.6415 175.827 29.7933 175.01 29.226C173.932 28.4214 172.689 27.8655 171.372 27.598C169.699 27.2089 167.984 27.0238 166.267 27.0469C164.497 27.0149 162.729 27.2087 161.008 27.6237C159.717 27.9125 158.502 28.4764 157.447 29.2773C156.651 29.8607 156.089 30.711 155.864 31.6743C155.669 33.1441 155.588 34.627 155.621 36.1094V39.6729C155.581 41.1815 155.666 42.6908 155.877 44.185C156.131 45.1282 156.704 45.9531 157.498 46.5179C158.575 47.3194 159.811 47.8789 161.123 48.1587C162.798 48.5398 164.511 48.7248 166.228 48.7099C167.99 48.731 169.748 48.533 171.462 48.1202C172.756 47.8408 173.973 47.276 175.023 46.4667C175.816 45.8827 176.373 45.0319 176.593 44.0696C176.808 42.5974 176.894 41.109 176.848 39.6217V36.1094C176.899 34.6046 176.809 33.0983 176.58 31.6102M170.581 38.8526C170.597 39.6441 170.568 40.4359 170.492 41.224C170.415 41.7094 170.187 42.1581 169.841 42.5058C169.441 42.923 168.939 43.2279 168.386 43.3903C167.698 43.6177 166.977 43.726 166.254 43.7107C165.55 43.7172 164.848 43.6179 164.173 43.4159C163.617 43.249 163.109 42.95 162.693 42.5442C162.361 42.1861 162.136 41.7422 162.042 41.2624C161.953 40.4624 161.919 39.6572 161.94 38.8526V36.9426C161.919 36.1507 161.953 35.3584 162.042 34.5712C162.105 34.0842 162.33 33.6328 162.68 33.2894C163.082 32.8778 163.583 32.5775 164.135 32.4177C164.825 32.2016 165.544 32.0977 166.267 32.1101C166.972 32.0955 167.674 32.195 168.347 32.4049C168.91 32.564 169.424 32.8639 169.841 33.2766C170.18 33.6311 170.41 34.0761 170.504 34.5584C170.581 35.355 170.611 36.1554 170.594 36.9554L170.581 38.8526Z" fill="#333640"/>
<path d="M95.3118 31.6099C95.0782 30.6402 94.4964 29.7913 93.678 29.2257C92.5945 28.4212 91.3483 27.8655 90.0274 27.5978C88.3538 27.2086 86.6395 27.0235 84.9217 27.0466C83.1514 27.0124 81.384 27.2062 79.6628 27.6234C78.3686 27.915 77.1506 28.4786 76.0888 29.277C75.3033 29.8655 74.7515 30.7149 74.5316 31.674C74.324 33.1427 74.2386 34.6262 74.2763 36.1091V39.6727C74.2316 41.1817 74.3213 42.6917 74.5444 44.1847C74.8042 45.1355 75.3924 45.9625 76.2037 46.5177C77.2904 47.3193 78.535 47.8787 79.8543 48.1584C81.5291 48.5406 83.2426 48.7255 84.96 48.7096C86.7179 48.7324 88.4717 48.5343 90.1806 48.1199C91.4784 47.8391 92.6987 47.2745 93.7546 46.4664C94.5538 45.8862 95.1162 45.0345 95.3374 44.0693C95.5398 42.5959 95.6209 41.1082 95.5799 39.6214V36.1091C95.6237 34.6044 95.534 33.0987 95.3118 31.6099ZM89.3126 38.8266C89.3305 39.6188 89.2921 40.4113 89.1977 41.198C89.1312 41.6842 88.9069 42.1347 88.5595 42.4799C88.1647 42.8971 87.6671 43.2022 87.1172 43.3643C86.4299 43.5917 85.709 43.7001 84.9855 43.6848C84.2812 43.6923 83.5797 43.5929 82.905 43.39C82.3537 43.2291 81.8527 42.929 81.4498 42.5183C81.0897 42.1759 80.8482 41.7267 80.7606 41.2365C80.6846 40.4356 80.6548 39.631 80.6712 38.8266V36.9423C80.6712 35.8271 80.6712 35.0324 80.7478 34.5709C80.8421 34.0886 81.0725 33.6437 81.4115 33.2891C81.8107 32.8737 82.313 32.5728 82.8667 32.4175C84.2336 32.0158 85.6864 32.0158 87.0533 32.4175C87.6142 32.5732 88.1247 32.8737 88.534 33.2891C88.8877 33.6329 89.1206 34.0827 89.1977 34.5709C89.293 35.3662 89.3314 36.1672 89.3126 36.968V38.8266Z" fill="#333640"/>
<path d="M70.8672 31.61C70.6478 30.6442 70.0792 29.7947 69.2717 29.2258C68.1766 28.425 66.9229 27.8698 65.5956 27.5978C63.9216 27.2108 62.2076 27.0258 60.4899 27.0466C58.7281 27.0145 56.9694 27.2083 55.2565 27.6235C53.9644 27.9097 52.7494 28.4738 51.6953 29.277C50.8961 29.8572 50.3336 30.7089 50.1125 31.6741C49.8916 33.1414 49.8062 34.6261 49.8572 36.1092V39.6727C49.8125 41.1818 49.9022 42.6918 50.1253 44.1848C50.3819 45.1336 50.9653 45.9603 51.7719 46.5177C52.8418 47.3344 54.0735 47.9113 55.3842 48.2097C57.0594 48.5897 58.7725 48.7747 60.4899 48.7609C62.2562 48.7836 64.0184 48.5855 65.736 48.1713C67.0394 47.8955 68.2649 47.3305 69.3228 46.5177C70.1189 45.937 70.6771 45.0848 70.8928 44.1207C71.1139 42.649 71.2037 41.1604 71.1608 39.6727V36.1092C71.2132 34.6034 71.1148 33.0961 70.8672 31.61ZM64.868 38.8267C64.868 39.9419 64.868 40.7366 64.7914 41.1981C64.7196 41.6853 64.491 42.1355 64.1405 42.4799C63.7405 42.8972 63.2389 43.2021 62.6853 43.3644C62.0021 43.5904 61.2857 43.6987 60.5665 43.6849C59.8662 43.6932 59.1689 43.5938 58.4987 43.39C57.9387 43.2322 57.4287 42.9319 57.018 42.5184C56.6597 42.1781 56.4259 41.7266 56.3543 41.2366C56.2595 40.437 56.2212 39.6317 56.2394 38.8267V36.9424C56.2297 36.1509 56.2595 35.3595 56.3287 34.571C56.4158 34.0915 56.6372 33.6468 56.9669 33.2892C57.3705 32.8794 57.8712 32.5794 58.4221 32.4175C59.1159 32.2004 59.8399 32.0966 60.5665 32.1099C61.2629 32.0949 61.9571 32.1945 62.6215 32.4047C63.1848 32.5546 63.6967 32.856 64.1022 33.2764C64.463 33.6182 64.7047 34.0677 64.7914 34.5582C64.7914 35.0197 64.868 35.84 64.868 36.9552V38.8267Z" fill="#333640"/>
<path d="M180.014 48.428H186.102V36.9171L193.965 48.428H200.079V27.4443H193.965V39.0578L186.077 27.4443H180.014V48.428Z" fill="#333640"/>
<path d="M152.431 27.4568H145.87V48.4404H152.431V27.4568Z" fill="#333640"/>
<path d="M126.022 48.4277H142.692V43.2748H132.583V27.4441H126.022V48.4277Z" fill="#333640"/>
<path d="M98.7444 48.4277H104.054V32.4304L108.126 48.4277H112.926L117.023 32.0587V48.4277H122.333V27.4441H113.104L110.577 37.9808L107.998 27.4441H98.7444V48.4277Z" fill="#333640"/>
<path d="M27.0348 31.9305H39.1609L27.0348 44.0823V48.4277H47.2279V43.9285H35.0508L47.1513 31.7895V27.4441H27.0348V31.9305Z" fill="#333640"/>
</g>
<defs>
<clipPath id="clip0_2122_252">
<rect width="227" height="76" fill="white"/>
</clipPath>
</defs>
</svg>
